# xmcd
#
# Track frame offsets: 
#        150
#        21463
#        49273
#        95852
#        131332
#        157202
#        176373
#        202382
#        231760
#        258732
#
# Disc length: 3623 seconds
#
# Revision: 0
# Processed by: cddbd v1.5.2PL0 Copyright (c) Steve Scherf et al.
# Submitted via: ExactAudioCopy v1.0b3
#
DISCID=980e250a
DTITLE=Ground Green - 42
DYEAR=2012
DGENRE=Funk
TTITLE0=Hey Speed
TTITLE1=Cool At The Pool
TTITLE2=Missing You
TTITLE3=T 42
TTITLE4=Welcome
TTITLE5=Streetflash
TTITLE6=Greyhound
TTITLE7=Pimp My Whatever
TTITLE8=Trompetenfisch
TTITLE9=Fog, River and Light
EXTD=
EXTT0=
EXTT1=
EXTT2=
EXTT3=
EXTT4=
EXTT5=
EXTT6=
EXTT7=
EXTT8=
EXTT9=
PLAYORDER=
